<svg xmlns="http://www.w3.org/2000/svg" xmlns:xlink="http://www.w3.org/1999/xlink" width="1920" zoomAndPan="magnify" viewBox="0 0 1440 809.999993" height="1080" preserveAspectRatio="xMidYMid meet" version="1.0"><defs><g/><clipPath id="7d1d0ce218"><path d="M 643.089844 405.027344 L 796.835938 405.027344 L 796.835938 489.730469 L 643.089844 489.730469 Z M 643.089844 405.027344 " clip-rule="nonzero"/></clipPath><clipPath id="a7ef77c81a"><path d="M 555.65625 316.351562 L 568.40625 316.351562 L 568.40625 344.816406 L 555.65625 344.816406 Z M 555.65625 316.351562 " clip-rule="nonzero"/></clipPath></defs><g clip-path="url(#7d1d0ce218)"><path fill="#000000" d="M 786.84375 469.03125 C 782.777344 473.113281 777.375 475.359375 771.628906 475.359375 C 765.882812 475.359375 760.476562 473.113281 756.414062 469.03125 C 752.351562 464.949219 750.113281 459.519531 750.113281 453.746094 C 750.113281 447.972656 752.351562 442.546875 756.414062 438.464844 C 758.628906 436.238281 761.242188 434.558594 764.089844 433.492188 L 769.851562 454.53125 C 770.074219 455.355469 770.816406 455.894531 771.628906 455.894531 C 771.789062 455.894531 771.953125 455.871094 772.117188 455.828125 C 773.101562 455.554688 773.679688 454.535156 773.410156 453.546875 L 767.648438 432.503906 C 768.949219 432.257812 770.277344 432.132812 771.628906 432.132812 C 777.375 432.132812 782.777344 434.382812 786.84375 438.464844 C 790.90625 442.546875 793.144531 447.972656 793.144531 453.746094 C 793.144531 459.519531 790.90625 464.949219 786.84375 469.03125 Z M 732.105469 448.15625 C 731.628906 447.976562 731.121094 447.851562 730.59375 447.792969 L 730.542969 447.519531 L 724.511719 415.9375 L 756.933594 415.9375 Z M 723.929688 452.183594 L 714.078125 452.183594 C 713.707031 446.007812 711.136719 440.253906 706.742188 435.839844 C 706.703125 435.800781 706.660156 435.761719 706.621094 435.722656 L 721.199219 418.261719 L 726.96875 448.492188 C 725.527344 449.265625 724.421875 450.589844 723.929688 452.183594 Z M 704.132812 469.03125 C 700.070312 473.113281 694.667969 475.359375 688.917969 475.359375 C 683.171875 475.359375 677.769531 473.113281 673.707031 469.03125 C 669.640625 464.949219 667.402344 459.519531 667.402344 453.746094 C 667.402344 447.972656 669.640625 442.546875 673.707031 438.464844 C 677.769531 434.382812 683.171875 432.132812 688.917969 432.132812 C 694.097656 432.132812 698.996094 433.957031 702.886719 437.308594 C 702.890625 437.308594 702.890625 437.308594 702.890625 437.308594 C 703.316406 437.675781 703.730469 438.0625 704.132812 438.464844 C 708.195312 442.546875 710.433594 447.972656 710.433594 453.746094 C 710.433594 459.519531 708.195312 464.949219 704.132812 469.03125 Z M 789.453125 435.839844 C 784.691406 431.058594 778.363281 428.425781 771.628906 428.425781 C 769.945312 428.425781 768.285156 428.589844 766.664062 428.914062 L 762.71875 414.488281 L 767.152344 408.734375 L 773.042969 408.734375 C 774.375 408.734375 775.464844 409.824219 775.464844 411.164062 C 775.464844 412.507812 774.375 413.597656 773.042969 413.597656 L 769.597656 413.597656 C 768.578125 413.597656 767.75 414.429688 767.75 415.453125 C 767.75 416.476562 768.578125 417.304688 769.597656 417.304688 L 773.042969 417.304688 C 776.414062 417.304688 779.15625 414.550781 779.15625 411.164062 C 779.15625 407.78125 776.414062 405.023438 773.042969 405.023438 L 757.691406 405.023438 C 756.671875 405.023438 755.84375 405.855469 755.84375 406.878906 C 755.84375 407.902344 756.671875 408.734375 757.691406 408.734375 L 762.484375 408.734375 L 759.789062 412.230469 L 723.804688 412.230469 L 723.136719 408.734375 L 729.910156 408.734375 C 730.925781 408.734375 731.753906 407.902344 731.753906 406.878906 C 731.753906 405.855469 730.925781 405.023438 729.910156 405.023438 L 715.785156 405.023438 C 714.765625 405.023438 713.9375 405.855469 713.9375 406.878906 C 713.9375 407.902344 714.765625 408.734375 715.785156 408.734375 L 719.378906 408.734375 L 720.300781 413.566406 L 703.816406 433.3125 C 699.519531 430.140625 694.351562 428.425781 688.917969 428.425781 C 682.1875 428.425781 675.855469 431.058594 671.09375 435.839844 C 666.335938 440.625 663.710938 446.984375 663.710938 453.746094 C 663.710938 460.511719 666.335938 466.867188 671.09375 471.652344 C 675.855469 476.433594 682.1875 479.070312 688.917969 479.070312 C 695.652344 479.070312 701.980469 476.433594 706.742188 471.652344 C 710.996094 467.378906 713.542969 461.847656 714.035156 455.894531 L 723.929688 455.894531 C 724.46875 457.648438 725.753906 459.074219 727.410156 459.800781 C 727.050781 461.296875 726.570312 462.976562 725.925781 464.746094 C 724.65625 468.238281 723.007812 471.382812 721.03125 474.082031 C 718.589844 477.421875 715.628906 480.101562 712.230469 482.042969 C 706.460938 485.34375 699.3125 486.601562 690.980469 485.78125 C 681.253906 484.828125 669.804688 481.03125 656.933594 474.496094 L 658.109375 472.402344 C 658.363281 471.953125 658.136719 471.339844 657.605469 471.039062 L 652.023438 466.984375 C 651.492188 466.683594 650.855469 466.804688 650.601562 467.253906 L 649.679688 468.898438 L 646.757812 467.246094 C 646.320312 467 645.800781 467.097656 645.589844 467.46875 C 645.382812 467.835938 645.570312 468.335938 646.007812 468.585938 L 648.925781 470.238281 L 647.261719 473.203125 L 644.34375 471.550781 C 643.90625 471.304688 643.382812 471.402344 643.175781 471.773438 C 643.117188 471.875 643.089844 471.988281 643.089844 472.101562 C 643.089844 472.402344 643.277344 472.710938 643.589844 472.890625 L 646.511719 474.542969 L 645.585938 476.191406 C 645.335938 476.636719 645.5625 477.25 646.09375 477.550781 L 652.4375 480.25 C 652.96875 480.546875 653.609375 480.425781 653.859375 479.976562 L 655.121094 477.730469 C 668.472656 484.523438 680.417969 488.472656 690.644531 489.476562 C 692.40625 489.644531 694.117188 489.730469 695.78125 489.730469 C 702.746094 489.730469 708.882812 488.230469 714.085938 485.25 C 717.949219 483.035156 721.304688 479.992188 724.058594 476.207031 C 726.242188 473.207031 728.050781 469.738281 729.4375 465.894531 C 730.179688 463.839844 730.71875 461.898438 731.109375 460.207031 C 733.988281 459.644531 736.164062 457.097656 736.164062 454.039062 C 736.164062 452.695312 735.742188 451.449219 735.023438 450.425781 L 759.894531 418.152344 L 763.109375 429.902344 C 759.648438 431.148438 756.480469 433.15625 753.804688 435.839844 C 749.042969 440.625 746.421875 446.984375 746.421875 453.746094 C 746.421875 460.511719 749.042969 466.867188 753.804688 471.652344 C 758.566406 476.433594 764.894531 479.070312 771.628906 479.070312 C 778.363281 479.070312 784.691406 476.433594 789.453125 471.652344 C 794.214844 466.867188 796.835938 460.511719 796.835938 453.746094 C 796.835938 446.984375 794.214844 440.625 789.453125 435.839844 " fill-opacity="1" fill-rule="nonzero"/></g><path fill="#000000" d="M 693.460938 452.601562 L 686.605469 463.109375 C 686.539062 463.214844 686.378906 463.140625 686.414062 463.023438 L 688.691406 455.246094 C 688.710938 455.175781 688.660156 455.109375 688.589844 455.109375 L 684.464844 455.113281 C 684.382812 455.113281 684.328125 455.015625 684.378906 454.945312 L 691.4375 444.382812 C 691.507812 444.277344 691.667969 444.359375 691.628906 444.476562 L 689 452.3125 C 688.976562 452.378906 689.027344 452.453125 689.101562 452.453125 L 693.371094 452.4375 C 693.457031 452.4375 693.507812 452.53125 693.460938 452.601562 Z M 688.917969 441.261719 C 682.054688 441.261719 676.492188 446.851562 676.492188 453.746094 C 676.492188 460.640625 682.054688 466.230469 688.917969 466.230469 C 695.78125 466.230469 701.347656 460.640625 701.347656 453.746094 C 701.347656 446.851562 695.78125 441.261719 688.917969 441.261719 " fill-opacity="1" fill-rule="nonzero"/><g clip-path="url(#a7ef77c81a)"><path fill="#000000" d="M 565.070312 316.351562 L 555.65625 335.046875 L 560.921875 335.078125 L 559.574219 344.816406 L 568.40625 330.078125 L 563.058594 329.917969 L 565.070312 316.351562 " fill-opacity="1" fill-rule="nonzero"/></g><g fill="#000000" fill-opacity="1"><g transform="translate(324.26911, 358.469913)"><g><path d="M 75.398438 -74.5 C 67 -54 54.296875 -23.097656 47.898438 -10.699219 C 41.5 -23.097656 28.800781 -54 21.097656 -74.5 C 14.300781 -73.699219 8.199219 -73.699219 1.398438 -74.5 C 14 -48.597656 24.199219 -26 34.300781 0 L 60.898438 0 C 71.699219 -26 81.296875 -48.597656 93.996094 -74.5 C 87.496094 -73.699219 81.898438 -73.699219 75.398438 -74.5 Z M 75.398438 -74.5 "/></g></g></g><g fill="#000000" fill-opacity="1"><g transform="translate(419.665429, 358.469913)"><g><path d="M 70.597656 -18.597656 C 64.097656 -13.300781 51.699219 -10.101562 42.097656 -9.898438 C 27.699219 -9.699219 21.398438 -15.699219 20.097656 -25 C 30.398438 -25.300781 47.5 -25.300781 70.199219 -24.898438 C 72.296875 -45 56.597656 -55.699219 36.597656 -55.699219 C 16.300781 -55.699219 3.5 -45.097656 3.5 -27.097656 C 3.5 -9.300781 16 1.398438 40.300781 1.398438 C 51 1.398438 62.097656 -0.699219 70.597656 -4.898438 C 69.699219 -8.601562 69.699219 -14.800781 70.597656 -18.597656 Z M 36.597656 -45 C 46.199219 -45 52.699219 -39.699219 53.898438 -29.800781 C 42.199219 -29.597656 29.5 -29.597656 19.898438 -29.898438 C 20.398438 -39.800781 26.597656 -45 36.597656 -45 Z M 36.597656 -45 "/></g></g></g><g fill="#000000" fill-opacity="1"><g transform="translate(495.062524, 358.469913)"><g><path d="M 5.699219 -76.398438 C 7.199219 -58.199219 7.199219 -19.398438 5.699219 0 L 22.898438 0 C 21.398438 -20.097656 21 -60.199219 23.398438 -79.699219 C 17.5 -77.5 11.601562 -76.597656 5.699219 -76.398438 Z M 5.699219 -76.398438 "/></g></g></g><g fill="#000000" fill-opacity="1"><g transform="translate(524.161404, 358.469913)"><g><path d="M 38.300781 1.398438 C 60.097656 1.398438 73 -9.199219 73 -27.097656 C 73 -45 60.097656 -55.5 38.300781 -55.5 C 16.398438 -55.5 3.5 -45 3.5 -27.097656 C 3.5 -9.199219 16.398438 1.398438 38.300781 1.398438 Z M 38.300781 -8.601562 C 26.597656 -8.601562 19.898438 -15.300781 19.898438 -27.097656 C 19.898438 -38 26.597656 -44.800781 38.300781 -44.800781 C 49.796875 -44.800781 56.597656 -38 56.597656 -27.097656 C 56.597656 -15.300781 49.796875 -8.601562 38.300781 -8.601562 Z M 38.300781 -8.601562 "/></g></g></g><g fill="#000000" fill-opacity="1"><g transform="translate(600.658471, 358.469913)"><g/></g></g><g fill="#000000" fill-opacity="1"><g transform="translate(630.657325, 358.469913)"><g><path d="M 8.601562 0 L 88.796875 0 C 88.398438 -5 88.398438 -10.300781 88.796875 -15.300781 C 74.898438 -12.699219 45.898438 -11.101562 26.898438 -11.300781 C 26.5 -18.199219 26.5 -25.199219 26.5 -31.898438 C 45.097656 -32.300781 68.097656 -31.597656 81.699219 -30.800781 C 81.296875 -34.800781 81.296875 -39.300781 81.699219 -43.398438 C 68.199219 -42.5 45.097656 -41.699219 26.5 -42 C 26.398438 -49.097656 26.5 -56.199219 26.699219 -63.296875 C 45.597656 -63.5 74.796875 -61.898438 88.796875 -59.199219 C 88.398438 -64.199219 88.398438 -69.296875 88.796875 -74.199219 C 70.5 -72.796875 20.800781 -73.5 8.601562 -74.5 C 9.800781 -56.097656 9.800781 -19 8.601562 0 Z M 8.601562 0 "/></g></g></g><g fill="#000000" fill-opacity="1"><g transform="translate(725.353655, 358.469913)"><g><path d="M 5.699219 -76.398438 C 7.199219 -58.199219 7.199219 -19.398438 5.699219 0 L 22.898438 0 C 21.398438 -20.097656 21 -60.199219 23.398438 -79.699219 C 17.5 -77.5 11.601562 -76.597656 5.699219 -76.398438 Z M 5.699219 -76.398438 "/></g></g></g><g fill="#000000" fill-opacity="1"><g transform="translate(754.452546, 358.469913)"><g><path d="M 70.597656 -18.597656 C 64.097656 -13.300781 51.699219 -10.101562 42.097656 -9.898438 C 27.699219 -9.699219 21.398438 -15.699219 20.097656 -25 C 30.398438 -25.300781 47.5 -25.300781 70.199219 -24.898438 C 72.296875 -45 56.597656 -55.699219 36.597656 -55.699219 C 16.300781 -55.699219 3.5 -45.097656 3.5 -27.097656 C 3.5 -9.300781 16 1.398438 40.300781 1.398438 C 51 1.398438 62.097656 -0.699219 70.597656 -4.898438 C 69.699219 -8.601562 69.699219 -14.800781 70.597656 -18.597656 Z M 36.597656 -45 C 46.199219 -45 52.699219 -39.699219 53.898438 -29.800781 C 42.199219 -29.597656 29.5 -29.597656 19.898438 -29.898438 C 20.398438 -39.800781 26.597656 -45 36.597656 -45 Z M 36.597656 -45 "/></g></g></g><g fill="#000000" fill-opacity="1"><g transform="translate(829.849652, 358.469913)"><g><path d="M 39.597656 1.101562 C 50 1.101562 59.699219 -1 68.199219 -5.300781 C 66.898438 -8.898438 66.898438 -15.5 68.199219 -19.300781 C 61.699219 -13.800781 52.699219 -10.398438 42.097656 -10.398438 C 27.398438 -10.398438 19.199219 -16.300781 19.199219 -27.300781 C 19.199219 -38.300781 27.398438 -44.199219 42.097656 -44.199219 C 52.597656 -44.199219 61.898438 -39.800781 68.199219 -33.699219 C 66.898438 -37.398438 66.898438 -45.597656 68.199219 -49.296875 C 59.699219 -53.5 50 -55.597656 39.597656 -55.597656 C 16 -55.597656 3.5 -45 3.5 -27.300781 C 3.5 -9.5 16 1.101562 39.597656 1.101562 Z M 39.597656 1.101562 "/></g></g></g><g fill="#000000" fill-opacity="1"><g transform="translate(902.346871, 358.469913)"><g><path d="M 29.097656 -44.199219 C 38.597656 -44.199219 48.097656 -43.800781 56.5 -43 C 56.097656 -47.199219 56.097656 -49.699219 56.5 -53.796875 C 48.199219 -53 38.699219 -52.597656 29.300781 -52.597656 C 29.398438 -59.5 29.597656 -66.5 29.800781 -73.097656 C 24.898438 -70.699219 19.300781 -69.796875 12.699219 -69.097656 C 13.199219 -64.796875 13.5 -59 13.800781 -52.898438 C 8.898438 -53.097656 4.101562 -53.398438 -0.398438 -53.796875 C 0 -50.898438 0 -45.898438 -0.398438 -43 C 4.199219 -43.398438 9 -43.699219 14.101562 -43.898438 C 14.398438 -32.800781 14.398438 -22.199219 14.398438 -18.5 C 14.398438 -3.300781 25.300781 1.101562 37 1.199219 C 43.898438 1.199219 51 -0.300781 56.296875 -1.898438 C 55.5 -5.601562 55.699219 -9.5 56.5 -13.199219 C 52 -12 46.398438 -10.398438 41.398438 -10.5 C 34.199219 -10.601562 28.398438 -13.898438 28.597656 -25.699219 C 28.699219 -31.199219 28.898438 -37.597656 29.097656 -44.199219 Z M 29.097656 -44.199219 "/></g></g></g><g fill="#000000" fill-opacity="1"><g transform="translate(961.044622, 358.469913)"><g><path d="M 24.898438 0 C 23.300781 -7 23.300781 -13.300781 23.300781 -20.300781 C 23.300781 -32.800781 29.097656 -40 40.5 -40 C 43 -40 46.199219 -39.5 49.898438 -38.398438 C 48.597656 -44.300781 48.597656 -50.398438 49.898438 -54.597656 C 40.5 -56.898438 28.597656 -51 23.097656 -33.898438 L 21.800781 -33.898438 C 22.097656 -41.398438 22.800781 -47.699219 24.300781 -55.5 C 20 -53.597656 12.699219 -52.398438 6.199219 -52 C 8.5 -34.5 8.5 -16.597656 6.199219 0 Z M 24.898438 0 "/></g></g></g><g fill="#000000" fill-opacity="1"><g transform="translate(1012.54262, 358.469913)"><g><path d="M 14.898438 -61.597656 C 22.300781 -61.597656 26.097656 -63.699219 26.097656 -68.5 C 26.097656 -73.296875 22.300781 -75.597656 14.898438 -75.597656 C 8.101562 -75.597656 4.601562 -73.296875 4.601562 -68.5 C 4.601562 -63.699219 8.101562 -61.597656 14.898438 -61.597656 Z M 6.398438 -53.796875 C 7.699219 -35.300781 7.699219 -18.300781 6.398438 0 L 23.597656 0 C 22.398438 -18.398438 22.398438 -35.398438 23.597656 -53.796875 C 17.800781 -52.597656 12.398438 -52.796875 6.398438 -53.796875 Z M 6.398438 -53.796875 "/></g></g></g><g fill="#000000" fill-opacity="1"><g transform="translate(1043.241441, 358.469913)"><g><path d="M 39.597656 1.101562 C 50 1.101562 59.699219 -1 68.199219 -5.300781 C 66.898438 -8.898438 66.898438 -15.5 68.199219 -19.300781 C 61.699219 -13.800781 52.699219 -10.398438 42.097656 -10.398438 C 27.398438 -10.398438 19.199219 -16.300781 19.199219 -27.300781 C 19.199219 -38.300781 27.398438 -44.199219 42.097656 -44.199219 C 52.597656 -44.199219 61.898438 -39.800781 68.199219 -33.699219 C 66.898438 -37.398438 66.898438 -45.597656 68.199219 -49.296875 C 59.699219 -53.5 50 -55.597656 39.597656 -55.597656 C 16 -55.597656 3.5 -45 3.5 -27.300781 C 3.5 -9.5 16 1.101562 39.597656 1.101562 Z M 39.597656 1.101562 "/></g></g></g></svg>